<svg width="507" height="683" viewBox="0 0 507 683" fill="none" xmlns="http://www.w3.org/2000/svg" style="">
<path d="M414.312 431.556L414.312 431.556C414.662 435.328 414.671 439.123 414.339 442.895C401.063 448.449 386.816 451.317 372.423 451.33C358.025 451.344 343.768 448.502 330.478 442.969C329.314 434.021 330.139 426.183 333.871 419.815C337.993 426.137 343.603 431.357 350.214 435.013C357.06 438.8 364.756 440.787 372.58 440.787C380.404 440.787 388.1 438.8 394.946 435.013C401.526 431.374 407.115 426.185 411.231 419.903C412.898 423.587 413.94 427.525 414.312 431.556Z" stroke="#fff" class="yhFslZlO_0"></path>
<path d="M262.64 341.72V341.72V290.97C262.673 273.489 266.882 256.268 274.916 240.741C282.621 225.852 293.63 212.934 307.089 202.97C298.293 219.986 293.94 239.827 293.94 258.47C293.94 272.914 295.358 285.735 300.13 298.673C304.886 311.568 312.961 324.547 326.23 339.351V370.903C308.86 376.88 293.358 386.739 279.369 399.739C268.432 382.369 262.63 362.255 262.64 341.72Z" stroke="#fff" class="yhFslZlO_1"></path>
<path d="M427.646 310.098L427.646 310.097C430.656 307.638 433.779 305.322 436.913 302.997C437.928 302.244 438.944 301.49 439.959 300.73C444.095 297.63 448.183 294.438 451.935 290.832C459.676 283.511 466.071 274.887 470.827 265.353L470.827 265.353C472.583 261.833 474.096 258.198 475.356 254.473C479.7 266.569 481.919 279.33 481.91 292.19V292.19V341.69V341.691C481.936 362.166 476.177 382.227 465.301 399.565C458.996 393.004 451.705 387.466 443.691 383.152C435.661 378.666 427.403 374.603 418.95 370.98V317.755C421.772 315.086 424.652 312.534 427.646 310.098Z" stroke="#fff" class="yhFslZlO_2"></path>
<path d="M321.01 438.709V438.71V462.41C321.01 477.923 315.426 487.654 307.783 492.527C300.126 497.409 290.296 497.486 281.665 493.472C273.039 489.46 265.639 481.373 262.87 469.973C260.102 458.575 261.953 443.813 271.942 426.451C291.543 393.07 332.174 374.04 373.51 374.04C442.354 374.04 498.74 430.426 498.74 499.27L498.76 641.47C498.76 656.316 501.276 668.59 505.696 679.024C483.728 675.711 464.41 668.524 450.217 656.272L449.905 656.002L449.581 656.257C427.893 673.287 401.106 682.523 373.531 682.48H373.53C342.963 682.48 312.624 677.218 289.944 663.296C267.298 649.396 252.25 626.844 252.25 592.13C252.25 556.836 275.119 522.13 324.289 509.013L324.293 509.012C329.478 507.581 335.359 506.198 341.627 504.725L341.803 504.683C348.133 503.195 354.85 501.613 361.617 499.799C374.954 496.224 388.523 491.735 399.768 485.243C396.841 489.133 393.532 492.722 389.888 495.956L389.886 495.958C385.453 499.945 380.371 502.907 375.1 505.65C373.547 506.459 371.975 507.249 370.398 508.042C366.647 509.928 362.872 511.827 359.275 514.004C324.398 532.053 313.335 571.136 318.242 605.612C320.698 622.86 327.153 639.006 336.67 650.851C346.189 662.701 358.794 670.27 373.52 670.27C402.106 670.27 426.02 646.346 426.02 617.77V439.52C426.02 411.783 403.399 387.311 375.66 386.21L375.659 386.21C368.59 385.936 361.538 387.09 354.926 389.604C348.313 392.118 342.275 395.94 337.173 400.841C332.071 405.742 328.01 411.622 325.233 418.128C322.456 424.635 321.02 431.635 321.01 438.709Z" stroke="#fff" class="yhFslZlO_3"></path>
<path d="M148.877 511.135L148.5 511.231V511.62V616.45C148.5 630.474 150.191 641.317 153.048 649.156C155.901 656.987 159.945 661.885 164.694 663.893C169.464 665.91 174.81 664.958 180.122 661.387C185.428 657.821 190.746 651.62 195.547 643.024C209.563 617.927 232.733 618.209 243.981 628.178C249.605 633.162 252.271 640.566 249.418 648.536C246.554 656.538 238.088 665.223 221.18 672.602C180.542 690.302 144.214 682.593 118.031 659.766C91.8269 636.92 75.74 598.888 75.74 555.89V259C75.74 244.204 73.2376 231.89 68.8232 221.458C91.7762 225.442 111.582 232.963 125.7 245.95C139.986 259.092 148.5 277.878 148.5 304.42V459.55V460.05H149H164.22C179.043 460.05 191.298 458.167 201.716 454.847C198.597 468.259 193.322 480.226 184.993 489.857C176.492 499.687 164.786 507.108 148.877 511.135Z" stroke="#fff" class="yhFslZlO_4"></path>
<path d="M238.5 38.18V333.76C238.5 386.408 205.479 431.772 159.13 450.195V419.939C163.461 412.097 165.723 403.28 165.7 394.319V83.6C165.7 57.0586 174.221 38.2749 188.511 25.1356C202.632 12.151 222.438 4.63195 245.376 0.648388C240.964 11.07 238.5 23.3466 238.5 38.18Z" stroke="#fff" class="yhFslZlO_5"></path>
<path d="M60.72 370.62L60.72 370.622L60.8 394.318C60.8 394.318 60.8 394.319 60.8 394.319C60.7686 401.321 62.1283 408.258 64.8 414.729V450.105C42.4876 441.559 23.3474 426.848 11.6531 406.58C1.65311 389.217 -0.202897 374.496 2.56312 363.15C5.32943 351.803 12.7302 343.777 21.3578 339.807C29.992 335.833 39.827 335.929 47.4883 340.782C55.1353 345.625 60.72 355.274 60.72 370.62Z" stroke="#fff" class="yhFslZlO_6"></path>
<path d="M351.646 2.27666C341.247 36.2155 341.573 60.6144 347.669 79.9168C353.906 99.6669 366.166 114.016 378.977 127.736C380.466 129.331 381.962 130.917 383.457 132.502C394.844 144.571 406.166 156.573 413.793 171.864C422.406 189.133 426.313 210.626 420.12 241.161L421.003 241.569C438.373 219.502 442.79 190.092 428.646 150.176C467.256 198.61 469.946 231.744 457.665 256.395C451.408 268.952 441.24 279.369 429.813 288.52C420.768 295.763 410.962 302.191 401.708 308.259C399.267 309.86 396.863 311.435 394.523 312.994L394.8 313.41L394.523 312.994C379.873 322.754 373.287 339.622 372.199 356.741C340.536 337.403 321.11 314.393 313.401 287.861C305.901 262.044 309.469 232.81 323.788 200.25C320.987 219.007 323.001 233.503 327.729 242.576C330.251 247.416 333.564 250.744 337.36 252.313C341.167 253.887 345.398 253.666 349.683 251.527L349.691 251.524C354.342 249.106 357.949 245.073 359.835 240.183C364.596 228.245 361.541 213.067 355.656 195.695C353.019 187.913 349.803 179.66 346.44 171.027C346.041 170.006 345.641 168.978 345.24 167.946C341.444 158.188 337.524 147.963 334.074 137.376C320.469 95.6269 314.193 48.3406 351.646 2.27666Z" stroke="#c11e2f" class="yhFslZlO_7"></path>
<style data-made-with="vivus-instant">
.yhFslZlO_0{stroke-dasharray:226 228;stroke-dashoffset:227;animation:yhFslZlO_draw_0 3400ms ease-out 0ms infinite,yhFslZlO_fade 3400ms linear 0ms infinite;}
.yhFslZlO_1{stroke-dasharray:449 451;stroke-dashoffset:450;animation:yhFslZlO_draw_1 3400ms ease-out 0ms infinite,yhFslZlO_fade 3400ms linear 0ms infinite;}
.yhFslZlO_2{stroke-dasharray:344 346;stroke-dashoffset:345;animation:yhFslZlO_draw_2 3400ms ease-out 0ms infinite,yhFslZlO_fade 3400ms linear 0ms infinite;}
.yhFslZlO_3{stroke-dasharray:1848 1850;stroke-dashoffset:1849;animation:yhFslZlO_draw_3 3400ms ease-out 0ms infinite,yhFslZlO_fade 3400ms linear 0ms infinite;}
.yhFslZlO_4{stroke-dasharray:1298 1300;stroke-dashoffset:1299;animation:yhFslZlO_draw_4 3400ms ease-out 0ms infinite,yhFslZlO_fade 3400ms linear 0ms infinite;}
.yhFslZlO_5{stroke-dasharray:979 981;stroke-dashoffset:980;animation:yhFslZlO_draw_5 3400ms ease-out 0ms infinite,yhFslZlO_fade 3400ms linear 0ms infinite;}
.yhFslZlO_6{stroke-dasharray:288 290;stroke-dashoffset:289;animation:yhFslZlO_draw_6 3400ms ease-out 0ms infinite,yhFslZlO_fade 3400ms linear 0ms infinite;}
.yhFslZlO_7{stroke-dasharray:1135 1137;stroke-dashoffset:1136;animation:yhFslZlO_draw_7 3400ms ease-out 0ms infinite,yhFslZlO_fade 3400ms linear 0ms infinite;}

@keyframes yhFslZlO_draw{100%{stroke-dashoffset:0;}}@keyframes yhFslZlO_fade{0%{stroke-opacity:1;}88.23529411764706%{stroke-opacity:1;}100%{stroke-opacity:0;}}
@keyframes yhFslZlO_draw_0{0%{stroke-dashoffset: 227}58.82352941176471%{ stroke-dashoffset: 0;}100%{ stroke-dashoffset: 0;}}
@keyframes yhFslZlO_draw_1{0%{stroke-dashoffset: 450}58.82352941176471%{ stroke-dashoffset: 0;}100%{ stroke-dashoffset: 0;}}
@keyframes yhFslZlO_draw_2{0%{stroke-dashoffset: 345}58.82352941176471%{ stroke-dashoffset: 0;}100%{ stroke-dashoffset: 0;}}
@keyframes yhFslZlO_draw_3{0%{stroke-dashoffset: 1849}58.82352941176471%{ stroke-dashoffset: 0;}100%{ stroke-dashoffset: 0;}}
@keyframes yhFslZlO_draw_4{0%{stroke-dashoffset: 1299}58.82352941176471%{ stroke-dashoffset: 0;}100%{ stroke-dashoffset: 0;}}
@keyframes yhFslZlO_draw_5{0%{stroke-dashoffset: 980}58.82352941176471%{ stroke-dashoffset: 0;}100%{ stroke-dashoffset: 0;}}
@keyframes yhFslZlO_draw_6{0%{stroke-dashoffset: 289}58.82352941176471%{ stroke-dashoffset: 0;}100%{ stroke-dashoffset: 0;}}
@keyframes yhFslZlO_draw_7{0%{stroke-dashoffset: 1136}58.82352941176471%{ stroke-dashoffset: 0;}100%{ stroke-dashoffset: 0;}}
</style>
</svg>
