<svg xmlns="http://www.w3.org/2000/svg" 
viewBox="0 0 622.19 763.49">
<defs>
<style>
.cls-5{fill:#fff;}
.cls-6{fill:#c11e2f;}
</style></defs>
<g>
<path class="cls-5" d="M432.81,443.24a63.53,63.53,0,0,0,0-11.73,36.86,36.86,0,0,0-3.51-12.64,45.71,45.71,0,0,1-77.44,0c-4.21,6.69-5.11,15-3.84,24.45a109.38,109.38,0,0,0,84.79-.08Z"/>
</g>
<g>
<path class="cls-5" d="M297.35,400.44c14.13-13.21,29.8-23.19,47.38-29.18a0,0,0,0,0,0,0v-32.1c-26.63-29.66-32.29-51.87-32.29-80.69,0-19.27,4.67-39.82,14.1-57.17a110.25,110.25,0,0,0-46.4,89.67v50.75a109.29,109.29,0,0,0,17.1,58.75Z"/>
</g>
<g>
<path class="cls-5" d="M469.59,290.47c-7.46,7.17-16.27,12.71-24.26,19.24-3.06,2.49-6,5.1-8.88,7.83v53.77a263.33,263.33,0,0,1,25,12.28,87,87,0,0,1,21.89,16.74h.07a109.15,109.15,0,0,0,17-58.64v-49.5a111.86,111.86,0,0,0-7.08-39.24,85.79,85.79,0,0,1-4.95,12.18A90.47,90.47,0,0,1,469.59,290.47Z"/>
</g>
<g>
<path class="cls-5" d="M517.24,499.27c0-69.12-56.61-125.73-125.73-125.73-41.47,0-82.29,19.09-102,52.66-40.15,69.78,50,98.75,50,36.21v-23.7a52.11,52.11,0,0,1,54.13-52c27.46,1.09,49.88,25.33,49.88,52.81V617.77c0,28.3-23.69,52-52,52-58.15,0-83.27-119.5-14-155.33,10.19-6.17,21.74-10.05,30.7-18.11a73.51,73.51,0,0,0,11.41-12.8c-.54.33-1.08.67-1.63,1-22.56,13.22-54.86,18.21-75.84,24-49.37,13.17-72.41,48.06-72.41,83.6,0,69.78,60.56,90.85,121.78,90.85a123.33,123.33,0,0,0,76.36-26.33c14.48,12.5,34.23,19.74,56.62,23-4.61-10.54-7.25-23-7.25-38.18Z"/>
</g>
<g>
<path class="cls-5" d="M213.11,642.78C194,677,167,672.41,167,616.45V511.62c32-8.1,47.19-29.89,53.4-57.52-10.54,3.47-23,5.45-38.18,5.45H167V304.42c0-53.32-34.23-75.71-81-83.61,4.61,10.54,7.24,23.05,7.24,38.19V555.89c0,86.23,64.52,152.72,146.14,117.17C307.25,643.44,241.42,592.09,213.11,642.78Z"/>
</g>
<g>
<path class="cls-5" d="M257,333.76V38.18C257,23,259.59,10.53,264.2,0c-46.74,7.9-81,30.28-81,83.6V394.32a52.21,52.21,0,0,1-6.57,25.49v31.12C223.52,432.61,257,386.88,257,333.76Z"/>
</g>
<g>
<path class="cls-5" d="M79.22,370.62c0-61.88-90.19-33.57-50,36.21,11.88,20.59,31.39,35.46,54.08,44V414.63a52.36,52.36,0,0,1-4-20.31Z"/>
</g>
<g>
<path class="cls-6" d="M390.65,357.6c.92-17.31,7.44-34.39,22.15-44.19,44.78-29.82,113.27-66.33,32.35-165.89,15.33,41.25,11.1,71.33-6.54,93.74C463.46,118.74,326.29,140.56,370.88,0c-78.82,93.75,25.24,193,6.49,240a21,21,0,0,1-9.91,11.08c-16.69,8.33-31.89-13.45-24.56-54.52C311.6,264.62,326.34,318.66,390.65,357.6Z"/>
</g>
</svg>